HIERARCHY
ROOT Root
{
  OFFSET 0.0 0.0 0.0
  CHANNELS 6 Xposition Yposition Zposition Zrotation Yrotation Xrotation
  JOINT Hips
  {
    OFFSET 0.0 100.0 0.0
    CHANNELS 6 Xposition Yposition Zposition Zrotation Yrotation Xrotation
    JOINT Spine1
    {
      OFFSET 5.003913 -0.037094 -0.013727
      CHANNELS 3 Zrotation Yrotation Xrotation
      JOINT Spine2
      {
        OFFSET 7.125363 -1e-06 0.0
        CHANNELS 3 Zrotation Yrotation Xrotation
        JOINT Chest
        {
          OFFSET 7.594027 1e-06 0.0
          CHANNELS 3 Zrotation Yrotation Xrotation
          JOINT Neck1
          {
            OFFSET 26.313086 -0.460272 -0.181672
            CHANNELS 3 Zrotation Yrotation Xrotation
            JOINT Neck2
            {
              OFFSET 8.045911 0.0 0.0
              CHANNELS 3 Zrotation Yrotation Xrotation
              JOINT Head
              {
                OFFSET 6.432774 0.0 0.0
                CHANNELS 3 Zrotation Yrotation Xrotation
                JOINT HeadEnd
                {
                  OFFSET 16.169773 0.06451 0.00362
                  CHANNELS 3 Zrotation Yrotation Xrotation
                }
                JOINT Jaw
                {
                  OFFSET 0.108741 3.12938 0.002639
                  CHANNELS 3 Zrotation Yrotation Xrotation
                }
                JOINT LeftEye
                {
                  OFFSET 4.45173 8.166359 3.206392
                  CHANNELS 3 Zrotation Yrotation Xrotation
                }
                JOINT RightEye
                {
                  OFFSET 4.436895 8.135758 -3.222429
                  CHANNELS 3 Zrotation Yrotation Xrotation
                }
              }
            }
          }
          JOINT LeftShoulder
          {
            OFFSET 23.218927 5.195579 1.621656
            CHANNELS 3 Zrotation Yrotation Xrotation
            JOINT LeftArm
            {
              OFFSET 15.902118 2e-06 -2e-06
              CHANNELS 3 Zrotation Yrotation Xrotation
              JOINT LeftForeArm
              {
                OFFSET 28.739307 0.0 -1e-06
                CHANNELS 3 Zrotation Yrotation Xrotation
                JOINT LeftHand
                {
                  OFFSET 27.093981 -4e-06 0.0
                  CHANNELS 3 Zrotation Yrotation Xrotation
                  JOINT LeftHandThumb1
                  {
                    OFFSET 2.276781 3.380274 0.83384
                    CHANNELS 3 Zrotation Yrotation Xrotation
                    JOINT LeftHandThumb2
                    {
                      OFFSET 4.705309 -1e-06 -1e-06
                      CHANNELS 3 Zrotation Yrotation Xrotation
                      JOINT LeftHandThumb3
                      {
                        OFFSET 2.798515 0.0 3e-06
                        CHANNELS 3 Zrotation Yrotation Xrotation
                        JOINT LeftHandThumbEnd
                        {
                          OFFSET 3.180793 4e-06 -4e-06
                          CHANNELS 3 Zrotation Yrotation Xrotation
                        }
                      }
                    }
                  }
                  JOINT LeftHandIndex1
                  {
                    OFFSET 3.247786 2.352677 0.137192
                    CHANNELS 3 Zrotation Yrotation Xrotation
                    JOINT LeftHandIndex2
                    {
                      OFFSET 6.367095 1e-06 0.0
                      CHANNELS 3 Zrotation Yrotation Xrotation
                      JOINT LeftHandIndex3
                      {
                        OFFSET 3.662364 0.0 0.0
                        CHANNELS 3 Zrotation Yrotation Xrotation
                        JOINT LeftHandIndex4
                        {
                          OFFSET 2.329242 4e-06 -4e-06
                          CHANNELS 3 Zrotation Yrotation Xrotation
                          JOINT LeftHandIndexEnd
                          {
                            OFFSET 2.767823 1e-06 0.0
                            CHANNELS 3 Zrotation Yrotation Xrotation
                          }
                        }
                      }
                    }
                  }
                  JOINT LeftHandMiddle1
                  {
                    OFFSET 3.163612 0.945023 -0.406112
                    CHANNELS 3 Zrotation Yrotation Xrotation
                    JOINT LeftHandMiddle2
                    {
                      OFFSET 6.276789 3e-06 0.0
                      CHANNELS 3 Zrotation Yrotation Xrotation
                      JOINT LeftHandMiddle3
                      {
                        OFFSET 4.35652 -1e-06 4e-06
                        CHANNELS 3 Zrotation Yrotation Xrotation
                        JOINT LeftHandMiddle4
                        {
                          OFFSET 2.996877 0.0 8e-06
                          CHANNELS 3 Zrotation Yrotation Xrotation
                          JOINT LeftHandMiddleEnd
                          {
                            OFFSET 2.323256 3e-06 -4e-06
                            CHANNELS 3 Zrotation Yrotation Xrotation
                          }
                        }
                      }
                    }
                  }
                  JOINT LeftHandRing1
                  {
                    OFFSET 2.882606 -0.309162 0.107445
                    CHANNELS 3 Zrotation Yrotation Xrotation
                    JOINT LeftHandRing2
                    {
                      OFFSET 6.033198 0.0 4e-06
                      CHANNELS 3 Zrotation Yrotation Xrotation
                      JOINT LeftHandRing3
                      {
                        OFFSET 4.350578 3e-06 0.0
                        CHANNELS 3 Zrotation Yrotation Xrotation
                        JOINT LeftHandRing4
                        {
                          OFFSET 2.651321 2e-06 -7e-06
                          CHANNELS 3 Zrotation Yrotation Xrotation
                          JOINT LeftHandRingEnd
                          {
                            OFFSET 1.937663 1e-06 -4e-06
                            CHANNELS 3 Zrotation Yrotation Xrotation
                          }
                        }
                      }
                    }
                  }
                  JOINT LeftHandPinky1
                  {
                    OFFSET 2.865315 -1.525436 0.575687
                    CHANNELS 3 Zrotation Yrotation Xrotation
                    JOINT LeftHandPinky2
                    {
                      OFFSET 5.54936 1e-06 -8e-06
                      CHANNELS 3 Zrotation Yrotation Xrotation
                      JOINT LeftHandPinky3
                      {
                        OFFSET 3.070974 0.0 -4e-06
                        CHANNELS 3 Zrotation Yrotation Xrotation
                        JOINT LeftHandPinky4
                        {
                          OFFSET 1.549672 1e-06 0.0
                          CHANNELS 3 Zrotation Yrotation Xrotation
                          JOINT LeftHandPinkyEnd
                          {
                            OFFSET 1.952123 0.0 0.0
                            CHANNELS 3 Zrotation Yrotation Xrotation
                          }
                        }
                      }
                    }
                  }
                }
              }
            }
          }
          JOINT RightShoulder
          {
            OFFSET 23.161716 5.296122 -1.380114
            CHANNELS 3 Zrotation Yrotation Xrotation
            JOINT RightArm
            {
              OFFSET -16.027195 -2e-06 1.1e-05
              CHANNELS 3 Zrotation Yrotation Xrotation
              JOINT RightForeArm
              {
                OFFSET -28.736639 4e-06 2e-06
                CHANNELS 3 Zrotation Yrotation Xrotation
                JOINT RightHand
                {
                  OFFSET -27.133619 6e-06 0.0
                  CHANNELS 3 Zrotation Yrotation Xrotation
                  JOINT RightHandThumb1
                  {
                    OFFSET -2.274328 -3.351035 -0.83067
                    CHANNELS 3 Zrotation Yrotation Xrotation
                    JOINT RightHandThumb2
                    {
                      OFFSET -4.703594 -3e-06 2e-06
                      CHANNELS 3 Zrotation Yrotation Xrotation
                      JOINT RightHandThumb3
                      {
                        OFFSET -2.794935 -4e-06 -3e-06
                        CHANNELS 3 Zrotation Yrotation Xrotation
                        JOINT RightHandThumbEnd
                        {
                          OFFSET -3.183852 4e-06 1e-06
                          CHANNELS 3 Zrotation Yrotation Xrotation
                        }
                      }
                    }
                  }
                  JOINT RightHandIndex1
                  {
                    OFFSET -3.253496 -2.33755 -0.127667
                    CHANNELS 3 Zrotation Yrotation Xrotation
                    JOINT RightHandIndex2
                    {
                      OFFSET -6.344434 0.0 0.0
                      CHANNELS 3 Zrotation Yrotation Xrotation
                      JOINT RightHandIndex3
                      {
                        OFFSET -3.654871 0.0 -8e-06
                        CHANNELS 3 Zrotation Yrotation Xrotation
                        JOINT RightHandIndex4
                        {
                          OFFSET -2.327586 -1e-06 0.0
                          CHANNELS 3 Zrotation Yrotation Xrotation
                          JOINT RightHandIndexEnd
                          {
                            OFFSET -2.770001 3e-06 8e-06
                            CHANNELS 3 Zrotation Yrotation Xrotation
                          }
                        }
                      }
                    }
                  }
                  JOINT RightHandMiddle1
                  {
                    OFFSET -3.168223 -0.944764 0.411762
                    CHANNELS 3 Zrotation Yrotation Xrotation
                    JOINT RightHandMiddle2
                    {
                      OFFSET -6.266691 -1e-06 -4e-06
                      CHANNELS 3 Zrotation Yrotation Xrotation
                      JOINT RightHandMiddle3
                      {
                        OFFSET -4.348901 0.0 0.0
                        CHANNELS 3 Zrotation Yrotation Xrotation
                        JOINT RightHandMiddle4
                        {
                          OFFSET -3.00024 2e-06 -4e-06
                          CHANNELS 3 Zrotation Yrotation Xrotation
                          JOINT RightHandMiddleEnd
                          {
                            OFFSET -2.321477 -4e-06 -4e-06
                            CHANNELS 3 Zrotation Yrotation Xrotation
                          }
                        }
                      }
                    }
                  }
                  JOINT RightHandRing1
                  {
                    OFFSET -2.885654 0.293261 -0.119232
                    CHANNELS 3 Zrotation Yrotation Xrotation
                    JOINT RightHandRing2
                    {
                      OFFSET -6.032835 -1e-06 -4e-06
                      CHANNELS 3 Zrotation Yrotation Xrotation
                      JOINT RightHandRing3
                      {
                        OFFSET -4.33881 0.0 -4e-06
                        CHANNELS 3 Zrotation Yrotation Xrotation
                        JOINT RightHandRing4
                        {
                          OFFSET -2.654903 -4e-06 -4e-06
                          CHANNELS 3 Zrotation Yrotation Xrotation
                          JOINT RightHandRingEnd
                          {
                            OFFSET -1.935122 0.0 4e-06
                            CHANNELS 3 Zrotation Yrotation Xrotation
                          }
                        }
                      }
                    }
                  }
                  JOINT RightHandPinky1
                  {
                    OFFSET -2.866241 1.503904 -0.60527
                    CHANNELS 3 Zrotation Yrotation Xrotation
                    JOINT RightHandPinky2
                    {
                      OFFSET -5.553177 -2e-06 0.0
                      CHANNELS 3 Zrotation Yrotation Xrotation
                      JOINT RightHandPinky3
                      {
                        OFFSET -3.062664 -1e-06 -4e-06
                        CHANNELS 3 Zrotation Yrotation Xrotation
                        JOINT RightHandPinky4
                        {
                          OFFSET -1.546529 2e-06 4e-06
                          CHANNELS 3 Zrotation Yrotation Xrotation
                          JOINT RightHandPinkyEnd
                          {
                            OFFSET -1.952341 0.0 -4e-06
                            CHANNELS 3 Zrotation Yrotation Xrotation
                          }
                        }
                      }
                    }
                  }
                }
              }
            }
          }
        }
      }
    }
    JOINT LeftLeg
    {
      OFFSET -8.443107 2.567604 10.043214
      CHANNELS 3 Zrotation Yrotation Xrotation
      JOINT LeftShin
      {
        OFFSET 43.229198 1e-06 -1e-06
        CHANNELS 3 Zrotation Yrotation Xrotation
        JOINT LeftFoot
        {
          OFFSET 42.298611 1e-06 1e-06
          CHANNELS 3 Zrotation Yrotation Xrotation
          JOINT LeftToeBase
          {
            OFFSET 14.165858 1e-06 0.0
            CHANNELS 3 Zrotation Yrotation Xrotation
            JOINT LeftToeEnd
            {
              OFFSET 6.7141 -0.234461 0.0
              CHANNELS 3 Zrotation Yrotation Xrotation
            }
          }
        }
      }
    }
    JOINT RightLeg
    {
      OFFSET -8.303923 2.592729 -10.047278
      CHANNELS 3 Zrotation Yrotation Xrotation
      JOINT RightShin
      {
        OFFSET -43.369682 0.0 1e-06
        CHANNELS 3 Zrotation Yrotation Xrotation
        JOINT RightFoot
        {
          OFFSET -42.260784 4e-06 2e-06
          CHANNELS 3 Zrotation Yrotation Xrotation
          JOINT RightToeBase
          {
            OFFSET -14.222245 -2e-06 -1e-06
            CHANNELS 3 Zrotation Yrotation Xrotation
            JOINT RightToeEnd
            {
              OFFSET -6.660062 0.232574 -2e-06
              CHANNELS 3 Zrotation Yrotation Xrotation
            }
          }
        }
      }
    }
  }
}
MOTION
Frames: 4
Frame Time: 0.03333333333333333
0.0 0.0 0.0 0.0 -0.0 0.0 -0.131148 99.663506 5.949086 91.982475 -0.414941 90.281288 -2.554467 -0.277341 0.191852 -11.639215 -0.311705 -0.020321 16.409628 1.00719 -2.123415 14.810861 -5.403476 3.163685 -2.592403 -0.786263 0.905184 -24.984295 0.082969 0.609226 6e-06 0.0 0.0 -0.066657 0.005968 -0.106055 -0.083753 0.078205 -0.094291 -0.048674 -0.076783 -0.105685 -122.326271 -66.149101 137.594879 15.128117 -10.413869 8.770108 54.495586 0.144312 -0.488409 6.764355 5.081832 -6.560173 17.636627 -26.322737 52.411194 -19.466658 -14.395597 29.410389 1e-06 -8.774822 -2e-06 15.361866 -18.030397 6.430689 -0.609777 -1.795655 -3.889328 -4.80709 -11.046811 -2.937847 -1e-06 -20.976019 3e-06 -5.019974 -25.033556 -4.03188 5e-06 -0.0 -2e-06 -10.634533 -5.686971 -3.565583 10.573269 -17.922951 -3.113902 1e-06 -13.821209 4e-06 -0.501783 -31.181505 -4.027015 -11.069161 -59.195522 7.000926 -13.982714 -7.150199 -2.875038 13.772729 -8.401491 -3.218242 0.347729 -34.211555 0.771657 -0.96303 -17.733372 2.621019 -1e-06 1e-06 -1e-06 -17.346422 -20.095217 -4.201778 21.757559 -1.638372 3.866428 -0.0 -6.338824 2e-06 -1.697593 -22.591749 -6.194006 -0.0 -4e-06 -2e-06 58.671177 -74.533653 136.156403 16.983133 -17.690971 2.770357 55.312737 -1.015189 0.392217 -1.575875 0.035328 12.952352 22.182108 -20.375895 49.933327 -16.701815 -16.743528 28.476532 -2e-06 -12.690601 -2e-06 16.718227 -18.063231 2.615798 -0.105919 -1.513857 -4.275882 -5.039039 -5.612871 -2.953557 5e-06 -11.020529 -2e-06 -6.111297 -15.895336 -3.840468 0.0 0.0 -0.0 -10.283366 -5.680288 -4.341839 11.028291 -11.302406 -2.372636 -1.384267 -14.238582 -6.320123 -0.62544 -26.924194 -3.8276 -4.087578 -50.437931 -3.730455 -13.708521 -7.363474 -3.720939 18.141148 -14.052744 -3.242676 5e-06 -18.78727 -1e-06 -0.429713 -8.456045 2.555504 -1e-06 -0.0 2e-06 -15.923536 -20.094486 -5.473585 30.41921 -7.190828 1.735925 2e-06 -8.162925 0.0 -1.861903 -22.861473 -6.167943 0.0 -4e-06 -2e-06 -178.1091 -4.853507 -10.156052 5.79179 -0.083697 0.157834 -75.367035 -4.749514 -12.869598 -5.721216 1.433624 2.067806 -1.0 -0.0 -0.0 2.593641 -10.27336 -6.693678 8.0077 -0.069089 0.247115 -79.779266 2.966074 -8.955947 -5.161868 0.795859 1.692185 -1.000003 0.0 -0.0 
0.0 0.0 0.0 0.0 -0.0 0.0 -0.122735 99.651512 5.970628 92.01461 -0.399431 90.199448 -2.538158 -0.293737 0.160106 -11.622553 -0.295628 -0.004023 16.377453 0.993989 -2.145971 14.868953 -5.265927 3.161592 -2.599811 -0.798024 0.957465 -24.903643 0.010594 0.609466 5e-06 0.0 0.0 -0.078651 0.004965 -0.087901 -0.095807 0.071199 -0.07917 -0.060526 -0.07196 -0.085611 -122.010933 -66.224403 137.345993 15.133818 -10.346757 8.553893 54.170895 0.071703 -0.444828 7.067571 5.089116 -6.609245 17.636625 -26.322737 52.411194 -19.466658 -14.395597 29.410389 -0.0 -8.774821 -1e-06 15.34119 -17.969231 6.413887 -0.609777 -1.795655 -3.889328 -4.807087 -11.046809 -2.93785 2e-06 -20.976015 2e-06 -5.019971 -25.033554 -4.03188 5e-06 -1e-06 1e-06 -10.634535 -5.686969 -3.565586 10.573275 -17.922953 -3.1139 1e-06 -13.821208 3e-06 -0.501775 -31.181501 -4.027016 -11.080487 -59.354885 7.102763 -13.982716 -7.150197 -2.875042 13.77273 -8.401494 -3.218242 0.34773 -34.211552 0.771658 -0.96303 -17.73337 2.621018 -1e-06 0.0 1e-06 -17.346413 -20.095213 -4.20178 21.757557 -1.638376 3.866427 1e-06 -6.338823 1e-06 -1.69759 -22.591743 -6.194006 -0.0 -4e-06 -2e-06 58.638889 -74.57608 136.270645 16.725111 -17.522417 2.925666 55.250641 -0.925338 0.430023 -1.428611 -0.173028 12.869089 22.182116 -20.375887 49.933315 -16.701811 -16.743528 28.476522 -3e-06 -12.6906 -3e-06 16.74058 -18.077009 2.594131 -0.10592 -1.51386 -4.275881 -5.039043 -5.61287 -2.953557 5e-06 -11.020525 -3e-06 -6.111298 -15.895334 -3.840474 0.0 1e-06 -0.0 -10.283369 -5.68029 -4.341837 11.02829 -11.302406 -2.372637 -1.384269 -14.238583 -6.32012 -0.625439 -26.924191 -3.827602 -4.092156 -50.538509 -3.699759 -13.708526 -7.363479 -3.720939 18.14115 -14.052739 -3.242676 5e-06 -18.787266 -1e-06 -0.429713 -8.456045 2.555505 -0.0 0.0 -0.0 -15.923539 -20.094486 -5.473584 30.419214 -7.190824 1.73593 1e-06 -8.162922 -0.0 -1.861902 -22.861467 -6.167943 -0.0 -3e-06 -0.0 -178.058716 -4.832007 -10.152707 5.752141 -0.060463 0.200428 -75.399452 -4.696046 -12.954394 -5.793526 1.468948 2.08006 -0.999999 -1e-06 -0.0 2.493148 -10.34158 -6.748462 8.254939 -0.072423 0.236837 -79.913406 3.116672 -8.911104 -5.223888 0.771278 1.683863 -1.000001 0.0 0.0 
0.0 0.0 0.0 0.0 -0.0 0.0 -0.135987 99.64061 5.926816 92.056915 -0.407609 90.095665 -2.550762 -0.323033 0.140197 -11.617896 -0.304131 -0.009883 16.404955 1.023198 -2.143957 14.886505 -5.142996 3.182432 -2.635178 -0.786697 0.949948 -24.796547 -0.028523 0.655938 5e-06 0.0 0.0 -0.0831 0.00527 -0.089931 -0.109566 0.063103 -0.079703 -0.068255 -0.063755 -0.090168 -121.957275 -66.301598 137.36261 15.041041 -10.196724 8.4386 53.944489 -0.002961 -0.477497 7.285135 4.960374 -6.835966 17.636629 -26.322735 52.411182 -19.46665 -14.395598 29.410378 2e-06 -8.774821 -3e-06 15.309203 -17.933693 6.413091 -0.609775 -1.795651 -3.889325 -4.80709 -11.046813 -2.937847 -0.0 -20.976019 3e-06 -5.019977 -25.03356 -4.031878 6e-06 1e-06 0.0 -10.634535 -5.68697 -3.565586 10.57327 -17.922953 -3.113899 -0.0 -13.821209 4e-06 -0.501783 -31.181505 -4.027011 -11.10511 -59.415924 7.147683 -13.982714 -7.150198 -2.875039 13.772728 -8.401489 -3.21824 0.347727 -34.211555 0.771658 -0.96303 -17.73337 2.621021 0.0 0.0 1e-06 -17.346418 -20.095219 -4.201776 21.757561 -1.638368 3.866428 0.0 -6.338824 2e-06 -1.697596 -22.591747 -6.194004 -0.0 -5e-06 -2e-06 58.335342 -74.558701 136.65802 16.481123 -17.212055 3.201542 55.196316 -0.797764 0.44887 -1.363115 -0.310055 12.790268 22.182117 -20.375898 49.933323 -16.701811 -16.743532 28.476532 1e-06 -12.690604 -1e-06 16.725353 -18.039976 2.595186 -0.105917 -1.513854 -4.275882 -5.039044 -5.612873 -2.953557 2e-06 -11.020527 -0.0 -6.111301 -15.895334 -3.840469 0.0 -0.0 -1e-06 -10.283374 -5.680291 -4.341839 11.028293 -11.302406 -2.372634 -1.384271 -14.238585 -6.320117 -0.625445 -26.924194 -3.8276 -4.064305 -50.546127 -3.675645 -13.708528 -7.363482 -3.720938 18.141153 -14.05274 -3.242676 3e-06 -18.78727 0.0 -0.429713 -8.456046 2.555504 -0.0 0.0 -1e-06 -15.923539 -20.094492 -5.473585 30.419218 -7.190827 1.735929 0.0 -8.162926 2e-06 -1.861906 -22.861479 -6.167942 1e-06 -4e-06 -2e-06 -178.074097 -4.813677 -10.217896 5.760686 -0.048443 0.219039 -75.420479 -4.571362 -12.993898 -5.819631 1.4798 2.089492 -0.999999 -0.0 0.0 2.201066 -10.425937 -6.755325 8.777315 -0.071229 0.221393 -80.137985 3.303976 -8.893572 -5.235178 0.757768 1.679991 -1.000001 0.0 0.0 
0.0 0.0 0.0 0.0 -0.0 0.0 -0.139841 99.624947 5.853427 92.097778 -0.411102 89.984291 -2.551822 -0.369654 0.120078 -11.630318 -0.314115 -0.010378 16.469604 1.067162 -2.128699 14.889527 -5.025014 3.196842 -2.661496 -0.780073 0.954189 -24.724266 -0.047387 0.683531 6e-06 0.0 0.0 -0.083449 0.005782 -0.092034 -0.11923 0.056201 -0.079541 -0.075077 -0.056034 -0.095124 -121.983261 -66.360237 137.454041 14.96909 -10.03836 8.341915 53.794682 -0.122293 -0.538756 7.422146 4.898266 -6.979386 17.636627 -26.322737 52.411198 -19.466661 -14.395596 29.410395 -1e-06 -8.774822 -3e-06 15.265336 -17.889111 6.421098 -0.609777 -1.795653 -3.889328 -4.807087 -11.046811 -2.937851 3e-06 -20.976019 0.0 -5.019969 -25.03356 -4.03188 5e-06 1e-06 0.0 -10.634535 -5.686969 -3.565588 10.573272 -17.922955 -3.113904 2e-06 -13.82121 1e-06 -0.501775 -31.181507 -4.027021 -11.110442 -59.41449 7.162508 -13.982712 -7.150198 -2.875042 13.772727 -8.401493 -3.218243 0.347733 -34.211555 0.771655 -0.963029 -17.733368 2.621018 -1e-06 0.0 -0.0 -17.346422 -20.095221 -4.201784 21.757557 -1.638375 3.866428 2e-06 -6.338822 1e-06 -1.697589 -22.591747 -6.194006 -1e-06 -4e-06 -4e-06 57.960011 -74.495033 137.099518 16.283812 -16.914423 3.551554 55.178867 -0.658779 0.513993 -1.355087 -0.395171 12.795587 22.182112 -20.375898 49.933327 -16.701815 -16.74353 28.476536 -4e-06 -12.690602 -2e-06 16.702909 -18.015125 2.600877 -0.105919 -1.513857 -4.275881 -5.039042 -5.61287 -2.953557 3e-06 -11.020528 -2e-06 -6.111298 -15.895338 -3.840471 -0.0 -1e-06 -1e-06 -10.28337 -5.680288 -4.341838 11.028292 -11.302404 -2.372635 -1.384269 -14.238585 -6.32012 -0.62544 -26.924192 -3.827601 -4.070176 -50.525501 -3.630954 -13.708525 -7.363477 -3.720937 18.14115 -14.052743 -3.242678 7e-06 -18.787268 -3e-06 -0.429712 -8.456044 2.555503 1e-06 0.0 -0.0 -15.923536 -20.094484 -5.473583 30.419218 -7.190823 1.735926 2e-06 -8.162925 0.0 -1.861905 -22.861473 -6.167943 1e-06 -3e-06 -3e-06 -178.148407 -4.801894 -10.324892 5.887212 -0.04816 0.223658 -75.490349 -4.469872 -13.036548 -5.854613 1.485318 2.091579 -1.0 -1e-06 0.0 1.823778 -10.512323 -6.696458 9.437612 -0.074621 0.206316 -80.407585 3.481336 -8.881015 -5.275237 0.746033 1.674859 -1.000002 0.0 -0.0 
